{
    "asset" : {
        "generator" : "Khronos glTF Blender I/O v1.6.16",
        "version" : "2.0"
    },
    "scene" : 0,
    "scenes" : [
        {
            "name" : "Scene",
            "nodes" : [
                0
            ]
        }
    ],
    "nodes" : [
        {
            "mesh" : 0,
            "name" : "BONE_L1",
            "rotation" : [
                0.5883240103721619,
                0.45397064089775085,
                0.367679238319397,
                0.5591042041778564
            ]
        }
    ],
    "materials" : [
        {
            "doubleSided" : true,
            "name" : "None",
            "pbrMetallicRoughness" : {
                "baseColorFactor" : [
                    0.800000011920929,
                    0.800000011920929,
                    0.800000011920929,
                    1
                ],
                "metallicFactor" : 0,
                "roughnessFactor" : 0.5
            }
        }
    ],
    "meshes" : [
        {
            "name" : "BONE_L1",
            "primitives" : [
                {
                    "attributes" : {
                        "POSITION" : 0,
                        "NORMAL" : 1
                    },
                    "indices" : 2,
                    "material" : 0
                }
            ]
        }
    ],
    "accessors" : [
        {
            "bufferView" : 0,
            "componentType" : 5126,
            "count" : 835201,
            "max" : [
                25.954029083251953,
                34.02281951904297,
                27.523025512695312
            ],
            "min" : [
                -19.027414321899414,
                -27.257431030273438,
                -35.0877685546875
            ],
            "type" : "VEC3"
        },
        {
            "bufferView" : 1,
            "componentType" : 5126,
            "count" : 835201,
            "type" : "VEC3"
        },
        {
            "bufferView" : 2,
            "componentType" : 5125,
            "count" : 979470,
            "type" : "SCALAR"
        }
    ],
    "bufferViews" : [
        {
            "buffer" : 0,
            "byteLength" : 10022412,
            "byteOffset" : 0
        },
        {
            "buffer" : 0,
            "byteLength" : 10022412,
            "byteOffset" : 10022412
        },
        {
            "buffer" : 0,
            "byteLength" : 3917880,
            "byteOffset" : 20044824
        }
    ],
    "buffers" : [
        {
            "byteLength" : 23962704,
            "uri" : "untitled.bin"
        }
    ]
}
